<svg xmlns="http://www.w3.org/2000/svg" viewBox="0 0 192 192" role="img" aria-label="SideBets app icon">
  <rect width="192" height="192" rx="48" fill="#3B82F6" />
  <circle cx="96" cy="96" r="54" fill="#FFFFFF" opacity="0.18" />
  <path d="M58 68c0-7.732 6.268-14 14-14h48c7.732 0 14 6.268 14 14v56c0 7.732-6.268 14-14 14H72c-7.732 0-14-6.268-14-14V68Z" fill="#FFFFFF" />
  <path d="M84 79c0-3.314 2.686-6 6-6h12c15.464 0 28 12.536 28 28s-12.536 28-28 28H84V79Z" fill="#3B82F6" />
  <path d="M77 73h20c12.703 0 23 10.297 23 23s-10.297 23-23 23H77v-9h18c7.732 0 14-6.268 14-14s-6.268-14-14-14H77v-9Z" fill="#FFFFFF" />
  <path d="M77 99h17.5c6.351 0 11.5 5.149 11.5 11.5S100.851 122 94.5 122H77v-23Z" fill="#3B82F6" />
  <path d="M69 73h9v46h-9V73Z" fill="#3B82F6" />
</svg>
