<svg xmlns="http://www.w3.org/2000/svg" viewBox="0 0 512 512" role="img" aria-label="SideBets app icon">
  <rect width="512" height="512" rx="128" fill="#3B82F6" />
  <circle cx="256" cy="256" r="144" fill="#FFFFFF" opacity="0.18" />
  <path d="M154.667 181.333c0-20.621 16.713-37.333 37.333-37.333h128c20.621 0 37.333 16.712 37.333 37.333v149.333c0 20.621-16.712 37.334-37.333 37.334H192c-20.62 0-37.333-16.713-37.333-37.334V181.333Z" fill="#FFFFFF" />
  <path d="M224 210.667c0-8.837 7.163-16 16-16h32c41.968 0 76 34.031 76 76 0 41.968-34.032 76-76 76h-48v-136Z" fill="#3B82F6" />
  <path d="M205.333 194.667h53.334c34.459 0 62.4 27.941 62.4 62.4s-27.941 62.4-62.4 62.4h-53.334v-24h48.8c20.988 0 38-17.012 38-38s-17.012-38-38-38h-48.8v-24Z" fill="#FFFFFF" />
  <path d="M205.333 264.533h46.933c17.214 0 31.2 13.986 31.2 31.2s-13.986 31.2-31.2 31.2h-46.933v-62.4Z" fill="#3B82F6" />
  <path d="M184 194.667h24v124.8h-24v-124.8Z" fill="#3B82F6" />
</svg>
